<?xml version="1.0" standalone="no"?>
<!DOCTYPE svg PUBLIC "-//W3C//DTD SVG 20010904//EN"
 "http://www.w3.org/TR/2001/REC-SVG-20010904/DTD/svg10.dtd">
<svg version="1.0" xmlns="http://www.w3.org/2000/svg"
 width="553.000000pt" height="401.000000pt" viewBox="0 0 553.000000 401.000000"
 preserveAspectRatio="xMidYMid meet">

<g transform="translate(0.000000,401.000000) scale(0.100000,-0.100000)"
fill="#000000" stroke="none">
<path d="M4354 2418 c-74 -10 -176 -42 -229 -73 -55 -32 -146 -130 -174 -187
-29 -60 -37 -144 -21 -202 22 -81 100 -150 296 -264 84 -49 140 -107 150 -156
21 -116 -50 -225 -179 -273 -64 -24 -199 -21 -267 5 -69 28 -114 28 -140 2
-36 -36 -20 -99 32 -126 50 -26 241 -31 349 -10 301 61 499 324 394 525 -21
41 -81 87 -225 171 -69 41 -139 88 -157 105 -71 71 -66 186 14 275 38 42 56
53 115 71 81 25 163 21 237 -12 55 -24 103 -24 124 -1 25 27 21 78 -7 106 -39
40 -184 60 -312 44z"/>
<path d="M3080 2399 c-126 -32 -194 -73 -300 -179 -78 -78 -105 -112 -142
-186 -183 -355 -135 -733 108 -857 65 -34 177 -57 270 -57 173 0 311 53 434
167 243 225 361 671 244 919 -27 57 -101 132 -161 162 -107 55 -309 69 -453
31z m259 -105 c66 -19 122 -74 145 -140 23 -66 31 -222 17 -325 -40 -280 -158
-492 -318 -571 -56 -27 -77 -32 -142 -33 -138 0 -230 66 -268 194 -22 73 -22
278 0 377 38 169 118 327 207 407 101 92 239 127 359 91z"/>
<path d="M1630 2382 c-21 -10 -39 -28 -45 -46 -8 -25 -6 -31 19 -53 22 -18 35
-23 55 -18 107 28 298 34 307 10 3 -8 -15 -119 -40 -247 -61 -309 -131 -675
-147 -767 -12 -72 -12 -74 10 -92 17 -14 40 -19 87 -19 56 0 68 4 94 28 27 25
31 36 45 137 13 96 65 378 154 835 l26 135 171 0 c155 0 174 2 193 19 27 25
27 41 -4 71 l-24 25 -433 0 c-392 0 -436 -2 -468 -18z"/>
<path d="M1080 2125 c-181 -41 -323 -168 -403 -361 -44 -107 -60 -213 -47
-324 25 -216 122 -306 342 -318 165 -8 260 21 288 88 11 27 11 34 -3 48 -15
14 -22 15 -59 4 -24 -7 -71 -18 -106 -24 -103 -20 -192 14 -226 87 -23 47 -41
145 -33 177 6 24 11 25 94 32 254 19 431 111 497 257 65 141 31 261 -89 319
-58 28 -169 35 -255 15z m133 -116 c40 -31 52 -88 32 -157 -14 -47 -28 -68
-84 -123 -71 -70 -198 -142 -275 -155 l-39 -7 7 48 c12 79 46 195 71 244 26
50 103 130 150 154 43 23 107 21 138 -4z"/>
</g>
</svg>
